<svg width="20" height="20" viewBox="0 0 20 20" fill="none" xmlns="http://www.w3.org/2000/svg">
<path fill-rule="evenodd" clip-rule="evenodd" d="M5 2C2.23858 2 0 4.23858 0 7V12.5556C0 15.317 2.23858 17.5556 5 17.5556H15C17.7614 17.5556 20 15.317 20 12.5556V7C20 4.23858 17.7614 2 15 2H5ZM8.06657 12.9268C8.10919 12.9737 8.167 13 8.22728 13C8.26558 13 8.30327 12.9893 8.33682 12.969L12.8823 10.219C12.918 10.1974 12.9477 10.1657 12.9684 10.1272C12.9891 10.0886 13 10.0447 13 9.99998C13 9.95523 12.9891 9.91131 12.9684 9.87279C12.9477 9.83426 12.918 9.80256 12.8823 9.78098L8.33682 7.03096C8.30222 7.01002 8.26325 6.99936 8.22376 7.00003C8.18427 7.0007 8.14563 7.01268 8.11163 7.03479C8.07763 7.05689 8.04945 7.08836 8.02988 7.12609C8.0103 7.16383 8.00001 7.20652 8 7.24996V12.75C8 12.8163 8.02394 12.8799 8.06657 12.9268Z" fill="#959BA1"/>
</svg>
