<svg width="500" height="500" viewBox="0 0 500 500" fill="none" xmlns="http://www.w3.org/2000/svg">
<g clip-path="url(#clip0_0_1)">
<path d="M273.083 109.209C281.728 118.097 287.856 129.12 290.841 141.149C294.804 157.392 294.097 174.518 291.029 190.931C286.795 196.45 281.733 201.282 276.02 205.255C268.863 210.396 260.93 214.361 252.519 216.999C245.783 219.119 238.917 220.801 231.963 222.034C224.998 223.203 217.965 223.919 210.908 224.179C201.587 224.527 192.274 223.304 183.361 220.56C177.174 218.747 171.285 216.041 165.88 212.529C157.483 198.095 151.055 182.198 149.336 165.565C147.849 149.729 151.721 133.852 160.331 120.474C168.821 107.033 185.102 95.7958 209.79 91.5365C232.905 87.5493 252.967 92.514 265.467 102.332C268.161 104.446 270.706 106.744 273.083 109.209Z" fill="white"/>
<path d="M423.753 365.346C407.447 348.821 389.674 333.808 370.652 320.493C368.87 295.892 363.553 271.36 352.829 249.144C349.576 242.39 345.806 235.898 341.552 229.724C331.664 215.111 318.754 202.785 303.694 193.577C299.674 191.864 295.544 190.421 291.331 189.258C291.233 189.816 291.139 190.374 291.036 190.931C286.802 196.45 281.739 201.282 276.027 205.255C268.871 210.396 260.937 214.36 252.526 216.997C245.79 219.119 238.924 220.801 231.97 222.034C225.005 223.203 217.972 223.919 210.914 224.179C201.592 224.528 192.276 223.305 183.361 220.56C177.606 218.849 172.106 216.379 167.006 213.215C163.308 215.789 159.938 218.804 156.971 222.193C154.988 227.479 153.639 232.981 152.952 238.585C151.09 248.95 150.29 259.478 150.563 270.006C151.621 290.611 159.42 310.3 172.763 326.05C186.036 341.629 208.272 354.14 228.306 358.38C241.502 362.171 257.381 362.794 262.224 363.063C290.28 364.614 315.351 360.166 333.516 352.84C347.9 364.115 385.76 376.673 405.523 380.55C410.289 381.485 415.24 382.272 419.969 381.161C421.612 380.897 423.139 380.146 424.351 379.006C425.564 377.867 426.406 376.39 426.77 374.767C426.988 373.072 426.83 371.35 426.309 369.722C425.787 368.094 424.915 366.601 423.753 365.346Z" fill="#FFC956"/>
<path d="M222.22 165.688C218.588 166.177 215.156 167.644 212.294 169.93C209.431 172.217 207.244 175.238 205.967 178.67C205.492 179.819 205.342 181.077 205.534 182.305C205.726 183.534 206.252 184.686 207.055 185.636C208.109 186.578 209.423 187.18 210.825 187.363C215.827 187.43 220.822 186.991 225.735 186.055C230.683 185.306 235.539 184.044 240.225 182.289C241.486 181.647 242.522 180.639 243.198 179.397C243.636 178.233 243.745 176.97 243.514 175.747C243.282 174.525 242.718 173.39 241.884 172.466C239.512 169.683 236.437 167.586 232.979 166.394C229.52 165.202 225.805 164.958 222.22 165.688Z" fill="#FFDD95"/>
<path d="M168.203 208.288C158.263 190.534 150.458 169.341 153.87 148.712C156.669 131.791 165.291 116.199 179.834 106.886C195.648 96.7494 216.042 92.704 234.609 94.7652C242.979 95.6105 251.073 98.2248 258.355 102.435C265.737 107.025 272.07 113.117 276.939 120.314C290.462 139.841 291.355 164.664 287.49 187.389C287.232 188.438 287.385 189.547 287.92 190.487C288.454 191.426 289.328 192.126 290.362 192.442C291.414 192.723 292.534 192.58 293.48 192.043C294.427 191.506 295.124 190.619 295.421 189.573C299.238 167.087 299.075 142.604 287.756 122.156C282.773 113.215 276.035 105.371 267.945 99.093C260.679 93.5878 252.273 89.7743 243.342 87.9311C222.294 83.6769 200.423 86.7104 181.332 96.532C173.848 100.31 167.168 105.502 161.663 111.82C155.2 119.642 150.459 128.737 147.751 138.512C140.459 163.858 148.607 190.148 161.099 212.435C163.685 217.057 170.792 212.912 168.203 208.288Z" fill="#8E8E8E"/>
<path d="M278.07 173.005C275.955 172.472 273.804 172.094 271.635 171.873C270.825 171.861 270.031 172.097 269.36 172.548C268.688 172.999 268.17 173.645 267.876 174.398C267.618 174.885 267.496 175.432 267.521 175.982C267.524 177.072 267.955 178.117 268.721 178.892L269.554 179.534C270.183 179.903 270.9 180.097 271.629 180.096C271.926 180.127 272.222 180.163 272.519 180.202L271.425 180.055C272.927 180.261 274.414 180.555 275.881 180.935C276.952 181.209 278.088 181.061 279.052 180.52C279.945 179.944 280.611 179.076 280.937 178.064C281.08 177.535 281.116 176.983 281.045 176.44C280.974 175.897 280.796 175.373 280.522 174.898C279.97 173.983 279.091 173.31 278.063 173.015L278.07 173.005Z" fill="#FF9843"/>
<path d="M186.096 199.9C186.824 198.995 187.656 198.178 188.574 197.465L187.741 198.109C187.859 198.017 187.979 197.928 188.099 197.84C188.809 197.443 189.379 196.837 189.732 196.104C190.085 195.372 190.203 194.549 190.072 193.747C190.047 193.203 189.878 192.676 189.583 192.218L188.941 191.388C188.437 190.885 187.812 190.521 187.126 190.332L186.032 190.184C185.302 190.183 184.585 190.376 183.955 190.744C182.59 191.692 181.356 192.816 180.288 194.089C179.7 194.658 179.302 195.395 179.148 196.198C178.995 197.002 179.094 197.833 179.431 198.578C179.596 199.086 179.892 199.541 180.288 199.9L181.121 200.543C181.75 200.912 182.467 201.105 183.196 201.103L184.29 200.958C184.976 200.768 185.602 200.404 186.104 199.9H186.096Z" fill="#FF9843"/>
<path d="M182.267 224.521C188.799 226.48 195.529 227.708 202.332 228.183C208.899 228.504 215.482 228.275 222.011 227.498C234.311 226.385 246.414 223.684 258.019 219.464C265.139 216.779 271.887 213.195 278.097 208.8C279.017 208.23 279.683 207.33 279.957 206.284C280.232 205.238 280.094 204.127 279.573 203.18C279.016 202.245 278.114 201.567 277.061 201.291C276.008 201.015 274.889 201.164 273.945 201.706C267.476 206.384 260.339 210.061 252.773 212.613C245.611 214.949 238.291 216.773 230.869 218.07C215.391 220.741 199.611 221.14 184.454 216.595C179.373 215.071 177.201 223.002 182.267 224.521Z" fill="#8E8E8E"/>
<path d="M221.127 161.727C217.528 162.322 214.104 163.698 211.095 165.758C208.087 167.819 205.568 170.513 203.715 173.652C201.775 177.167 200.577 181.33 202.051 185.242C202.887 187.184 204.296 188.825 206.089 189.947C207.883 191.069 209.976 191.619 212.09 191.523C216.235 191.485 220.371 191.109 224.455 190.4C228.771 189.786 233.041 188.881 237.234 187.69C241.102 186.562 244.893 185.086 246.854 181.282C248.874 177.358 247.428 172.798 244.797 169.572C239.068 162.541 229.778 160.343 221.123 161.733C220.076 162.03 219.187 162.726 218.65 163.672C218.112 164.618 217.969 165.737 218.251 166.787C218.564 167.824 219.266 168.701 220.21 169.235C221.154 169.768 222.267 169.917 223.319 169.651C225.602 169.258 227.941 169.33 230.195 169.865C232.449 170.4 234.57 171.386 236.432 172.764C237.389 173.507 238.234 174.383 238.943 175.366C239.381 176.015 239.603 176.786 239.577 177.569C239.759 177.014 239.442 177.72 239.245 177.951C238.945 178.226 238.622 178.475 238.28 178.695C237.695 178.968 236.067 179.464 235.053 179.76C228.786 181.583 222.342 182.731 215.831 183.184C213.9 183.318 211.12 183.917 209.812 182.58C209.483 182.237 209.747 182.469 209.797 182.561C209.907 182.754 209.677 182.126 209.677 182.14C209.62 181.743 209.602 181.342 209.624 180.942C209.823 179.925 210.186 178.948 210.698 178.048C212.015 175.775 213.838 173.835 216.027 172.38C218.216 170.925 220.711 169.994 223.319 169.66C224.365 169.362 225.253 168.665 225.79 167.719C226.327 166.773 226.471 165.655 226.191 164.604C225.883 163.564 225.183 162.683 224.239 162.146C223.295 161.61 222.179 161.459 221.127 161.727Z" fill="#8E8E8E"/>
<path d="M251.443 157.929C251.044 156.666 250.924 155.332 251.093 154.018C251.262 152.704 251.714 151.443 252.42 150.322C253.456 148.857 255.018 147.848 256.78 147.505C257.955 147.252 259.175 147.285 260.335 147.602C261.496 147.92 262.562 148.512 263.444 149.329C264.79 150.699 265.671 152.457 265.964 154.355C266.256 156.252 265.945 158.194 265.074 159.905C264.229 161.502 262.809 162.718 261.1 163.308C259.391 163.898 257.521 163.818 255.87 163.082C254.792 162.611 253.834 161.903 253.068 161.011C252.301 160.119 251.746 159.065 251.443 157.929Z" fill="#3468C0"/>
<path d="M177.457 170.695C177.057 169.433 176.937 168.098 177.105 166.784C177.273 165.47 177.726 164.209 178.432 163.088C179.469 161.624 181.03 160.616 182.792 160.271C183.968 160.018 185.188 160.051 186.348 160.369C187.509 160.686 188.575 161.278 189.458 162.095C190.803 163.466 191.684 165.224 191.976 167.122C192.268 169.02 191.957 170.961 191.086 172.673C190.241 174.269 188.82 175.485 187.111 176.075C185.403 176.665 183.533 176.584 181.882 175.85C180.804 175.379 179.846 174.67 179.08 173.778C178.314 172.885 177.759 171.832 177.457 170.695Z" fill="#3468C0"/>
<path d="M301.61 197.125C335.768 217.682 355.25 254.758 362.861 292.883C364.017 298.677 364.931 304.514 365.603 310.393C365.946 313.379 366.231 316.372 366.46 319.37C366.51 320.021 366.551 320.673 366.602 321.323C366.628 321.56 366.636 321.798 366.626 322.036C366.67 321.618 366.634 321.703 366.518 322.292C366.206 323.392 365.745 324.443 365.147 325.417C362.46 329.986 369.569 334.125 372.251 329.563C373.62 327.402 374.492 324.965 374.806 322.428C374.851 319.836 374.675 317.245 374.28 314.683C373.722 308.852 372.962 303.043 371.999 297.255C370.18 286.17 367.403 275.264 363.699 264.658C356.922 244.858 346.112 226.676 331.95 211.259C324.24 203.013 315.428 195.87 305.764 190.03C301.217 187.291 297.075 194.396 301.61 197.125Z" fill="#8E8E8E"/>
<path d="M153.005 221.101C150.807 227.193 149.332 233.521 148.607 239.956C147.542 246.613 146.823 253.32 146.455 260.051C145.207 283.932 152.723 307.447 167.592 326.187C174.533 334.765 182.897 342.09 192.319 347.842C203.025 354.648 214.83 359.552 227.211 362.337C232.372 363.449 234.58 355.53 229.397 354.412C209.038 350.065 190.547 339.47 176.511 324.11C162.12 307.483 154.318 286.171 154.575 264.192C154.705 257.082 155.324 249.989 156.426 242.964C157.149 236.25 158.663 229.644 160.938 223.285C161.22 222.234 161.077 221.115 160.539 220.169C160.001 219.223 159.112 218.527 158.064 218.231C157.013 217.968 155.901 218.12 154.959 218.654C154.017 219.188 153.317 220.064 153.005 221.101Z" fill="#8E8E8E"/>
<path d="M227.211 362.344C239.107 365.697 251.57 366.676 263.873 367.255C279.457 368.033 295.079 366.901 310.388 363.884C317.745 362.435 324.975 360.404 332.01 357.812C333.046 357.497 333.921 356.797 334.455 355.856C334.99 354.916 335.143 353.806 334.882 352.757C334.585 351.711 333.888 350.824 332.941 350.287C331.995 349.75 330.875 349.606 329.823 349.887C305.077 359.099 278.217 360.558 252.111 358.291C244.435 357.717 236.83 356.42 229.397 354.419C224.294 352.979 222.116 360.905 227.211 362.344Z" fill="#8E8E8E"/>
<path d="M229.562 364.008C225.542 373.129 223.034 382.843 222.136 392.768C222.14 393.857 222.575 394.9 223.345 395.669C224.116 396.439 225.16 396.873 226.249 396.877C227.331 396.849 228.361 396.408 229.127 395.643C229.892 394.878 230.334 393.849 230.362 392.768C231.176 384.285 233.302 375.98 236.664 368.147C237.181 367.199 237.316 366.089 237.042 365.045C236.767 364 236.104 363.1 235.188 362.527C234.245 361.984 233.125 361.835 232.072 362.111C231.019 362.386 230.117 363.065 229.562 364.001V364.008Z" fill="#8E8E8E"/>
<path d="M222.462 390.385C215.324 393.601 208.835 398.094 203.314 403.641C202.927 404.021 202.619 404.475 202.408 404.974C202.197 405.474 202.088 406.011 202.086 406.553C202.083 407.095 202.189 407.633 202.395 408.134C202.602 408.636 202.906 409.092 203.29 409.475C203.674 409.859 204.13 410.162 204.632 410.369C205.134 410.575 205.672 410.681 206.215 410.678C206.758 410.676 207.295 410.567 207.796 410.356C208.296 410.145 208.75 409.838 209.13 409.451C210.429 408.152 211.78 406.906 213.189 405.726C213.552 405.423 213.917 405.124 214.287 404.829C214.441 404.686 214.606 404.556 214.781 404.439C214.517 404.588 214.315 404.793 214.698 404.505C215.456 403.939 216.219 403.384 217 402.85C220.036 400.774 223.254 398.978 226.614 397.481C227.553 396.929 228.235 396.027 228.512 394.974C228.788 393.921 228.636 392.801 228.09 391.859C227.517 390.942 226.616 390.279 225.569 390.005C224.523 389.73 223.411 389.867 222.462 390.385Z" fill="#8E8E8E"/>
<path d="M222.078 393.27C220.761 395.647 219.843 398.223 219.358 400.897C218.916 403.61 218.631 406.346 218.265 409.07L218.412 407.977C218.374 408.256 218.335 408.534 218.297 408.813C218.045 409.883 218.191 411.008 218.71 411.978C218.983 412.444 219.345 412.852 219.775 413.178C220.205 413.505 220.696 413.743 221.219 413.88C221.741 414.017 222.286 414.05 222.821 413.976C223.356 413.903 223.872 413.725 224.338 413.452C224.802 413.191 225.208 412.839 225.532 412.417C225.856 411.995 226.091 411.512 226.223 410.997C226.549 408.696 226.813 406.387 227.121 404.084L226.974 405.177C227.134 403.699 227.403 402.235 227.781 400.797C227.983 400.113 228.237 399.438 228.494 398.769C228.681 398.288 228.117 399.606 228.427 398.94C228.498 398.789 228.564 398.639 228.636 398.488C228.808 398.127 228.989 397.772 229.176 397.418C229.727 396.477 229.88 395.356 229.603 394.302C229.327 393.248 228.642 392.347 227.7 391.797C226.758 391.247 225.636 391.093 224.58 391.37C223.525 391.647 222.623 392.331 222.073 393.272L222.078 393.27Z" fill="#8E8E8E"/>
<path d="M226.093 400.563C226.846 401.063 227.582 401.587 228.3 402.134L227.469 401.492C230.72 404.085 233.626 407.082 236.117 410.41L235.474 409.578C235.944 410.188 236.407 410.802 236.862 411.422C237.432 412.321 238.303 412.989 239.32 413.305C240.39 413.588 241.529 413.44 242.49 412.891C243.412 412.345 244.087 411.465 244.376 410.434C244.527 409.906 244.568 409.353 244.497 408.808C244.426 408.264 244.243 407.74 243.961 407.269C242.056 404.611 239.98 402.079 237.747 399.69C235.478 397.347 232.961 395.259 230.239 393.462C229.295 392.919 228.176 392.77 227.123 393.046C226.07 393.321 225.168 394 224.612 394.936C224.087 395.882 223.946 396.995 224.221 398.042C224.496 399.09 225.165 399.991 226.088 400.558L226.093 400.563Z" fill="#8E8E8E"/>
<path d="M292.333 366.317C290.034 374.019 288.597 381.952 288.049 389.971C288.054 391.059 288.489 392.101 289.259 392.87C290.03 393.64 291.073 394.074 292.162 394.08C293.245 394.055 294.277 393.614 295.043 392.849C295.809 392.084 296.25 391.053 296.275 389.971C296.407 388.096 296.594 386.227 296.816 384.359C296.832 384.149 296.859 383.94 296.897 383.733C296.971 383.231 297.044 382.731 297.123 382.231C297.268 381.303 297.426 380.377 297.598 379.453C298.288 375.755 299.179 372.097 300.268 368.496C300.547 367.446 300.402 366.328 299.865 365.383C299.328 364.437 298.442 363.74 297.396 363.441C296.344 363.174 295.23 363.323 294.287 363.858C293.343 364.394 292.644 365.273 292.335 366.312L292.333 366.317Z" fill="#8E8E8E"/>
<path d="M289.614 387.846C282.067 391.736 275.538 397.337 270.55 404.202C270.002 405.144 269.85 406.264 270.127 407.317C270.403 408.371 271.086 409.272 272.025 409.825C272.974 410.343 274.086 410.48 275.132 410.206C276.178 409.932 277.08 409.268 277.652 408.351C277.795 408.157 277.943 407.965 278.085 407.77C278.387 407.358 277.583 408.402 278.059 407.803C278.358 407.428 278.656 407.056 278.963 406.688C279.568 405.96 280.196 405.25 280.848 404.559C282.126 403.189 283.484 401.895 284.914 400.684C285.271 400.383 285.631 400.087 285.997 399.794C286.141 399.68 286.299 399.572 286.438 399.452C285.624 400.173 286.32 399.548 286.5 399.414C287.216 398.883 287.947 398.37 288.693 397.873C290.329 396.8 292.024 395.82 293.771 394.939C294.707 394.384 295.387 393.483 295.663 392.43C295.939 391.378 295.79 390.26 295.247 389.317C294.678 388.395 293.776 387.728 292.728 387.453C291.68 387.179 290.566 387.319 289.619 387.843L289.614 387.846Z" fill="#8E8E8E"/>
<path d="M288.16 394.237C286.881 399.314 286.011 404.484 285.559 409.7C285.563 410.788 285.998 411.83 286.768 412.6C287.539 413.369 288.582 413.804 289.672 413.808C290.754 413.782 291.785 413.34 292.551 412.576C293.316 411.811 293.758 410.781 293.785 409.7C293.906 408.179 294.061 406.663 294.263 405.151L294.117 406.243C294.604 402.937 295.263 399.659 296.092 396.422C296.382 395.371 296.242 394.248 295.703 393.301C295.164 392.353 294.271 391.658 293.219 391.368C292.168 391.078 291.044 391.218 290.095 391.756C289.146 392.294 288.45 393.187 288.16 394.237Z" fill="#8E8E8E"/>
<path d="M294.419 397.555C294.974 397.726 295.523 397.93 296.068 398.139C296.41 398.267 296.736 398.404 297.07 398.539C297.675 398.786 296.244 398.183 296.698 398.382L297.142 398.574C298.555 399.193 299.947 399.86 301.317 400.575C302.614 401.249 303.887 401.962 305.135 402.737C305.67 403.079 306.196 403.422 306.708 403.785L307.02 404.012C307.557 404.401 306.163 403.307 306.647 403.727C306.84 403.898 307.042 404.055 307.233 404.24C308.006 405 309.049 405.424 310.134 405.42C311.219 405.416 312.258 404.983 313.026 404.217C313.793 403.45 314.226 402.412 314.23 401.328C314.235 400.244 313.81 399.202 313.049 398.43C310.75 396.457 308.201 394.795 305.467 393.487C302.628 391.957 299.663 390.671 296.606 389.641C295.554 389.36 294.434 389.504 293.488 390.041C292.542 390.577 291.844 391.464 291.547 392.51C291.281 393.56 291.431 394.671 291.966 395.613C292.502 396.555 293.38 397.254 294.419 397.564V397.555Z" fill="#8E8E8E"/>
<path d="M369.036 324.366C379.267 331.727 389.294 339.354 398.816 347.617C403.345 351.555 407.765 355.607 412.108 359.745C414.42 361.947 416.712 364.173 418.985 366.421C420.918 367.913 422.261 370.039 422.776 372.424C424.128 382.414 401.073 375.454 396.094 374.156C385.452 371.374 374.972 368.002 364.705 364.055C354.746 360.236 344.349 355.987 335.813 349.466C334.87 348.922 333.749 348.772 332.696 349.048C331.642 349.324 330.74 350.004 330.185 350.94C329.661 351.887 329.522 352.999 329.797 354.045C330.072 355.092 330.739 355.992 331.66 356.561C340.108 363.013 350.387 367.207 360.203 371.08C371.289 375.456 382.631 379.153 394.168 382.149C399.735 383.694 405.405 384.843 411.134 385.587C417.862 386.34 426.508 385.383 429.773 378.486C431.229 375.365 431.395 371.798 430.236 368.556C428.972 365.292 426.924 362.388 424.274 360.099C419.494 355.403 414.647 350.774 409.672 346.284C398.055 335.951 385.874 326.269 373.185 317.283C372.241 316.742 371.121 316.592 370.068 316.868C369.015 317.144 368.113 317.823 367.557 318.757C367.031 319.703 366.89 320.816 367.165 321.863C367.44 322.91 368.109 323.811 369.032 324.378L369.036 324.366Z" fill="#8E8E8E"/>
</g>
<defs>
<clipPath id="clip0_0_1">
<rect width="286" height="328" fill="white" transform="translate(145 86)"/>
</clipPath>
</defs>
</svg>
