<svg width="227" height="53" viewBox="0 0 227 53" fill="none" xmlns="http://www.w3.org/2000/svg">
<path d="M161.259 29.4203C161.259 34.1999 159.797 38.0848 156.875 41.0747C153.778 44.2916 149.503 45.8999 144.05 45.8999C140.931 45.8999 137.976 45.0617 135.184 43.3854C133.046 42.117 131.422 40.6557 130.309 39.0022C130.091 37.6205 129.982 36.3633 129.982 35.2305C129.982 31.5381 131.062 28.7067 133.221 26.7362C134.966 25.1504 137.114 24.3575 139.666 24.3575C141.607 24.3575 143.374 24.8898 144.966 25.9545C146.58 27.0872 147.769 28.6502 148.532 30.6435C149.23 30.6435 149.579 30.2697 149.579 29.5224C149.579 29.1374 149.416 28.6274 149.088 27.9934C148.783 27.359 148.336 26.7246 147.747 26.0906C146.198 24.4367 144.333 23.4176 142.152 23.0326V3.46087C143.243 2.62277 144.617 1.92055 146.275 1.35422C147.932 0.787936 149.819 0.504791 151.935 0.504791C154.05 0.504791 155.959 0.889882 157.66 1.66002C160.059 2.79264 161.259 4.49158 161.259 6.75678V29.4203Z" fill="#3468C0"/>
<path d="M31.347 30.9668C31.347 35.7463 29.8855 39.6312 26.9631 42.6211C23.8657 45.838 19.5909 47.4463 14.1381 47.4463C11.0192 47.4463 8.06378 46.6081 5.27197 44.9318C3.1345 43.6634 1.5096 42.2021 0.39723 40.5486C0.179134 39.1669 0.0700684 37.9097 0.0700684 36.7769C0.0700684 33.0845 1.14971 30.2531 3.309 28.2826C5.05388 26.6968 7.20226 25.9039 9.75412 25.9039C11.6953 25.9039 13.462 26.4362 15.0542 27.5009C16.6682 28.6336 17.8569 30.1967 18.6203 32.19C19.3184 32.19 19.6672 31.8161 19.6672 31.0688C19.6672 30.6838 19.5038 30.1739 19.1766 29.5398C18.871 28.9054 18.424 28.271 17.8351 27.637C16.2865 25.9831 14.4217 24.9641 12.2406 24.579V5.00729C13.3311 4.16919 14.7052 3.46697 16.3628 2.90064C18.0205 2.33435 19.9073 2.05121 22.0227 2.05121C24.1385 2.05121 26.047 2.4363 27.7481 3.20644C30.1472 4.33906 31.347 6.038 31.347 8.30319V30.9668Z" fill="#3468C0"/>
<path d="M50.3006 30.3304V34.5586C50.4093 34.6715 50.5876 34.7276 50.8355 34.7276C51.0838 34.7276 51.2621 34.639 51.3708 34.462C51.4795 34.2849 51.5339 33.9787 51.5339 33.5438V30.0884C51.5339 28.542 51.4717 27.5194 51.3477 27.02C51.2234 26.5046 50.9908 26.2468 50.6494 26.2468C50.4324 26.2468 50.2463 26.3272 50.0911 26.4884C50.231 28.0831 50.3006 29.3639 50.3006 30.3304ZM41.5995 41.0341C39.056 38.4892 37.7841 35.0419 37.7841 30.6926C37.7841 26.3272 38.9782 22.8884 41.3669 20.3755C43.7708 17.8464 46.9196 16.5818 50.8125 16.5818C54.7054 16.5818 57.8541 17.8947 60.2581 20.5201C62.6467 23.1459 63.8409 26.5688 63.8409 30.7893C63.8409 34.9935 62.6854 38.3361 60.3746 40.8165C58.079 43.2973 54.9536 44.5379 50.9986 44.5379C47.0435 44.5379 43.9104 43.37 41.5995 41.0341ZM82.7265 22.0425V31.6108C82.7265 34.0108 83.2848 35.5734 84.4016 36.2983C84.4172 36.3787 84.425 36.5318 84.425 36.7572V37.1925C84.425 39.56 83.8045 41.3403 82.5638 42.5322C81.4158 43.6599 79.8803 44.2236 77.9573 44.2236C76.0496 44.2236 74.475 43.6599 73.2344 42.5322C71.668 41.0987 70.8848 39.0045 70.8848 36.25V20.5445C71.164 20.3349 71.4662 20.166 71.7919 20.0368C72.1176 19.9081 72.459 19.7469 72.8156 19.5536C72.1485 19.1995 71.5436 18.5871 71.0009 17.7173C70.4582 16.8315 70.1868 15.8006 70.1868 14.6247C70.1868 12.595 70.8304 10.9359 72.1176 9.64722C73.4048 8.35858 74.9794 7.71423 76.8406 7.71423C78.7171 7.71423 80.2838 8.37466 81.5402 9.69555C82.8117 11.0003 83.4479 12.6434 83.4479 14.6247C83.4479 16.2194 82.9669 17.6206 82.0055 18.8291C81.0436 20.021 79.8725 20.7698 78.4922 21.076C78.4922 21.688 78.7171 21.9942 79.1671 21.9942C79.9581 21.9942 80.7644 21.6722 81.5867 21.0277C82.2068 21.5272 82.5869 21.8655 82.7265 22.0425ZM115.804 31.8281C115.804 32.9879 115.928 33.9223 116.176 34.6309C116.424 35.3399 116.858 35.8955 117.479 36.2983C117.494 36.3787 117.502 36.5318 117.502 36.7572V37.1925C117.502 39.4155 116.882 41.147 115.641 42.3872C114.416 43.6116 112.826 44.2236 110.872 44.2236C108.933 44.2236 107.359 43.6518 106.149 42.5082C104.737 41.2031 104.032 39.2222 104.032 36.5639C104.032 35.4366 104.078 34.4457 104.171 33.5921C104.28 32.7223 104.35 32.1022 104.381 31.7314C104.427 31.3611 104.474 31.0147 104.52 30.6926C104.567 30.3706 104.59 29.8951 104.59 29.2673C104.59 28.6387 104.505 28.1879 104.334 27.9142C104.179 27.6401 103.954 27.5032 103.659 27.5032C103.38 27.5032 103.132 27.5678 102.915 27.6965L103.218 31.6348C102.938 33.262 102.799 34.9854 102.799 36.8059C102.799 38.626 103.194 40.2853 103.985 41.783C102.465 43.4102 100.333 44.2236 97.5874 44.2236C96.0207 44.2236 94.6635 43.7968 93.5159 42.9428C92.1821 41.9763 91.5151 40.6959 91.5151 39.1011V27.4066C90.6001 26.0697 90.1426 24.4267 90.1426 22.4774C90.1426 20.5124 90.6001 18.8129 91.5151 17.3794H95.6562C96.7573 17.3794 97.6957 17.8062 98.4715 18.6598C97.7888 19.3201 97.4478 19.8679 97.4478 20.3028C97.4478 20.8023 97.7192 21.0521 98.2619 21.0521C98.9442 19.8277 99.9835 18.8129 101.379 18.0072C102.791 17.2019 104.388 16.7993 106.172 16.7993C108.855 16.7993 111.035 17.4838 112.71 18.8531C114.819 20.5765 115.874 23.2506 115.874 26.875L115.804 31.8281Z" fill="#3468C0"/>
<path d="M180.212 30.3304V34.5586C180.321 34.6715 180.499 34.7275 180.747 34.7275C180.996 34.7275 181.174 34.639 181.283 34.4619C181.391 34.2849 181.446 33.9787 181.446 33.5438V30.0884C181.446 28.542 181.383 27.5194 181.259 27.0199C181.135 26.5046 180.903 26.2467 180.561 26.2467C180.344 26.2467 180.158 26.3271 180.003 26.4884C180.143 28.0831 180.212 29.3639 180.212 30.3304ZM171.511 41.0341C168.968 38.4891 167.696 35.0418 167.696 30.6926C167.696 26.3271 168.89 22.8884 171.279 20.3755C173.683 17.8464 176.831 16.5818 180.724 16.5818C184.617 16.5818 187.766 17.8947 190.17 20.5201C192.558 23.1458 193.753 26.5688 193.753 30.7893C193.753 34.9935 192.597 38.336 190.286 40.8164C187.991 43.2972 184.865 44.5378 180.91 44.5378C176.955 44.5378 173.822 43.3699 171.511 41.0341ZM212.033 31.5868V32.1424C212.033 32.4002 212.041 32.5854 212.057 32.6979C212.212 32.7787 212.382 32.8189 212.569 32.8189C213.018 32.8189 213.243 32.4644 213.243 31.7558C213.243 29.3878 213.367 26.9314 213.615 24.386C213.879 21.8252 214.158 19.8516 214.453 18.4665C215.709 17.5162 217.384 17.0409 219.478 17.0409C221.572 17.0409 223.185 17.4679 224.317 18.3215C225.465 19.1592 226.039 20.1741 226.039 21.3659C226.039 21.8654 225.752 23.9271 225.178 27.5515C224.542 31.2404 223.728 35.1222 222.735 39.1978C222.533 40.0193 222.169 41.171 221.642 42.6528C221.13 44.135 220.579 45.3671 219.99 46.3498C218.144 49.3943 215.864 51.2789 213.15 52.0038C211.878 52.3421 210.599 52.511 209.311 52.511C206.814 52.511 204.883 51.867 203.518 50.578C202.262 49.4183 201.634 47.9766 201.634 46.2532C201.634 44.5456 202.122 42.935 203.1 41.4207C203.332 41.3561 203.759 41.3241 204.379 41.3241C204.999 41.3241 205.775 41.4045 206.706 41.5657C209.28 42.0652 210.591 42.3149 210.637 42.3149C210.746 42.3308 210.862 42.3551 210.987 42.3872C211.126 42.4034 211.304 42.4116 211.521 42.4116C211.739 42.4116 211.925 42.347 212.08 42.2183C212.235 42.0891 212.313 41.8317 212.313 41.4451L206.822 40.3576C205.473 39.7777 204.302 38.5614 203.309 36.7092C202.084 34.4217 201.254 31.3208 200.82 27.4065C199.796 26.0213 199.284 24.3621 199.284 22.4291C199.284 20.4961 199.749 18.8128 200.68 17.3793H206.659C208.66 17.3793 210.156 17.9751 211.149 19.167C211.878 20.053 212.343 21.3497 212.545 23.0573C212.204 25.8601 212.033 28.7032 212.033 31.5868Z" fill="#3468C0"/>
</svg>
