<svg width="500" height="500" viewBox="0 0 500 500" fill="none" xmlns="http://www.w3.org/2000/svg">
<ellipse cx="58.1243" cy="45.6303" rx="58.1243" ry="45.6303" transform="matrix(0.995158 0.0982913 -0.0990088 0.995087 129.173 81)" fill="#FFC956"/>
<path d="M267.104 247.661L277.336 257.005L280.342 243.505L267.104 247.661Z" fill="#FF9843"/>
<path d="M263.149 258.377L273.381 267.721L276.387 254.221L263.149 258.377Z" fill="#FF9843"/>
<path d="M271.912 282.986C268.475 231.441 307.561 186.884 359.107 183.473V183.473C413.589 179.866 460.79 221.102 464.423 275.582V275.582C468.055 330.062 426.744 377.156 372.262 380.762V380.762C320.716 384.174 276.057 345.16 272.62 293.615L271.912 282.986Z" fill="#FFC956"/>
<ellipse cx="6.45838" cy="6.43492" rx="6.45838" ry="6.43492" transform="matrix(0.997817 -0.0660444 0.0665291 0.997784 307.312 231.458)" fill="#3468C0"/>
<path d="M363.098 256.207C362.657 249.594 367.66 243.879 374.273 243.441L401.789 241.62C415.57 240.708 427.487 251.14 428.406 264.921L429.327 278.73C431.167 306.322 410.29 330.171 382.697 331.997V331.997C374.699 332.526 367.783 326.472 367.25 318.474L363.098 256.207Z" fill="white"/>
<path d="M254.014 177.882L243.852 187.302L240.745 173.824L254.014 177.882Z" fill="#FF9843"/>
<path d="M253.259 190.635L243.097 200.054L239.99 186.576L253.259 190.635Z" fill="#FF9843"/>
<path d="M124.258 130.403L121.317 232.93C141.416 240.498 154.281 254.56 158.202 260.645C160.177 263.422 164.073 269.931 163.847 273.75C163.564 278.524 157.165 278.148 155.754 274.871C154.343 271.595 142.676 251.749 120.657 244.068C51.6852 216.064 16.6758 292.246 40.2923 327.165C59.1855 355.1 96.7801 367.209 113.216 369.772C135.423 374.27 186.8 374.096 214.656 337.412C249.475 291.556 248.826 139.829 238.476 124.85C228.126 109.872 194.721 104.715 173.832 105.084C160.354 105.322 138.87 113.814 131.06 117.091C129.148 117.894 127.667 119.439 126.893 121.363L125.335 125.235C124.673 126.881 124.309 128.63 124.258 130.403Z" fill="#FFC956"/>
<ellipse cx="6.4584" cy="6.43489" rx="6.4584" ry="6.43489" transform="matrix(0.998278 0.0586653 -0.0590962 0.998252 218.11 151.848)" fill="#3468C0"/>
</svg>
