<svg width="699" height="237" viewBox="0 0 699 237" fill="none" xmlns="http://www.w3.org/2000/svg">
<path d="M42 41H657V39H42V41ZM658 42V195H660V42H658ZM657 196H42V198H657V196ZM41 195V42H39V195H41ZM42 196C41.4477 196 41 195.552 41 195H39C39 196.657 40.3431 198 42 198V196ZM658 195C658 195.552 657.552 196 657 196V198C658.657 198 660 196.657 660 195H658ZM657 41C657.552 41 658 41.4477 658 42H660C660 40.3432 658.657 39 657 39V41ZM42 39C40.3431 39 39 40.3431 39 42H41C41 41.4477 41.4477 41 42 41V39Z" fill="black" fill-opacity="0.1"/>
<path d="M482.957 131.834C482.957 144.197 479.031 154.246 471.18 161.98C462.859 170.301 451.375 174.461 436.727 174.461C428.348 174.461 420.408 172.293 412.908 167.957C407.166 164.676 402.801 160.896 399.812 156.619C399.227 153.045 398.934 149.793 398.934 146.863C398.934 137.312 401.834 129.988 407.635 124.891C412.322 120.789 418.094 118.738 424.949 118.738C430.164 118.738 434.91 120.115 439.188 122.869C443.523 125.799 446.717 129.842 448.768 134.998C450.643 134.998 451.58 134.031 451.58 132.098C451.58 131.102 451.141 129.783 450.262 128.143C449.441 126.502 448.24 124.861 446.658 123.221C442.498 118.943 437.488 116.307 431.629 115.311V64.6855C434.559 62.5176 438.25 60.7012 442.703 59.2363C447.156 57.7715 452.225 57.0391 457.908 57.0391C463.592 57.0391 468.719 58.0352 473.289 60.0273C479.734 62.957 482.957 67.3516 482.957 73.2109V131.834Z" fill="#3468C0"/>
<path d="M133.957 135.834C133.957 148.197 130.031 158.246 122.18 165.98C113.859 174.301 102.375 178.461 87.7266 178.461C79.3477 178.461 71.4082 176.293 63.9082 171.957C58.166 168.676 53.8008 164.896 50.8125 160.619C50.2266 157.045 49.9336 153.793 49.9336 150.863C49.9336 141.312 52.834 133.988 58.6348 128.891C63.3223 124.789 69.0938 122.738 75.9492 122.738C81.1641 122.738 85.9102 124.115 90.1875 126.869C94.5234 129.799 97.7168 133.842 99.7676 138.998C101.643 138.998 102.58 138.031 102.58 136.098C102.58 135.102 102.141 133.783 101.262 132.143C100.441 130.502 99.2402 128.861 97.6582 127.221C93.498 122.943 88.4883 120.307 82.6289 119.311V68.6855C85.5586 66.5176 89.25 64.7012 93.7031 63.2363C98.1562 61.7715 103.225 61.0391 108.908 61.0391C114.592 61.0391 119.719 62.0352 124.289 64.0273C130.734 66.957 133.957 71.3516 133.957 77.2109V135.834Z" fill="#3468C0"/>
<path d="M184.875 134.188V145.125C185.167 145.417 185.646 145.562 186.312 145.562C186.979 145.562 187.458 145.333 187.75 144.875C188.042 144.417 188.188 143.625 188.188 142.5V133.562C188.188 129.562 188.021 126.917 187.688 125.625C187.354 124.292 186.729 123.625 185.812 123.625C185.229 123.625 184.729 123.833 184.312 124.25C184.688 128.375 184.875 131.688 184.875 134.188ZM161.5 161.875C154.667 155.292 151.25 146.375 151.25 135.125C151.25 123.833 154.458 114.938 160.875 108.438C167.333 101.896 175.792 98.625 186.25 98.625C196.708 98.625 205.167 102.021 211.625 108.812C218.042 115.604 221.25 124.458 221.25 135.375C221.25 146.25 218.146 154.896 211.938 161.312C205.771 167.729 197.375 170.938 186.75 170.938C176.125 170.938 167.708 167.917 161.5 161.875ZM271.985 112.75V137.5C271.985 143.708 273.485 147.75 276.485 149.625C276.527 149.833 276.548 150.229 276.548 150.812V151.938C276.548 158.062 274.881 162.667 271.548 165.75C268.464 168.667 264.339 170.125 259.173 170.125C254.048 170.125 249.818 168.667 246.485 165.75C242.277 162.042 240.173 156.625 240.173 149.5V108.875C240.923 108.333 241.735 107.896 242.61 107.562C243.485 107.229 244.402 106.812 245.36 106.312C243.568 105.396 241.943 103.812 240.485 101.562C239.027 99.2708 238.298 96.6042 238.298 93.5625C238.298 88.3125 240.027 84.0208 243.485 80.6875C246.943 77.3542 251.173 75.6875 256.173 75.6875C261.214 75.6875 265.423 77.3958 268.798 80.8125C272.214 84.1875 273.923 88.4375 273.923 93.5625C273.923 97.6875 272.631 101.312 270.048 104.438C267.464 107.521 264.318 109.458 260.61 110.25C260.61 111.833 261.214 112.625 262.423 112.625C264.548 112.625 266.714 111.792 268.923 110.125C270.589 111.417 271.61 112.292 271.985 112.75ZM360.845 138.062C360.845 141.062 361.178 143.479 361.845 145.312C362.512 147.146 363.678 148.583 365.345 149.625C365.387 149.833 365.408 150.229 365.408 150.812V151.938C365.408 157.688 363.741 162.167 360.408 165.375C357.116 168.542 352.845 170.125 347.595 170.125C342.387 170.125 338.158 168.646 334.908 165.688C331.116 162.312 329.22 157.188 329.22 150.312C329.22 147.396 329.345 144.833 329.595 142.625C329.887 140.375 330.074 138.771 330.158 137.812C330.283 136.854 330.408 135.958 330.533 135.125C330.658 134.292 330.72 133.062 330.72 131.438C330.72 129.812 330.491 128.646 330.033 127.938C329.616 127.229 329.012 126.875 328.22 126.875C327.47 126.875 326.803 127.042 326.22 127.375L327.033 137.562C326.283 141.771 325.908 146.229 325.908 150.938C325.908 155.646 326.97 159.938 329.095 163.812C325.012 168.021 319.283 170.125 311.908 170.125C307.699 170.125 304.053 169.021 300.97 166.812C297.387 164.312 295.595 161 295.595 156.875V126.625C293.137 123.167 291.908 118.917 291.908 113.875C291.908 108.792 293.137 104.396 295.595 100.688H306.72C309.678 100.688 312.199 101.792 314.283 104C312.449 105.708 311.533 107.125 311.533 108.25C311.533 109.542 312.262 110.188 313.72 110.188C315.553 107.021 318.345 104.396 322.095 102.312C325.887 100.229 330.178 99.1875 334.97 99.1875C342.178 99.1875 348.033 100.958 352.533 104.5C358.199 108.958 361.033 115.875 361.033 125.25L360.845 138.062Z" fill="#3468C0"/>
<path d="M533.875 134.188V145.125C534.167 145.417 534.646 145.562 535.312 145.562C535.979 145.562 536.458 145.333 536.75 144.875C537.042 144.417 537.188 143.625 537.188 142.5V133.562C537.188 129.562 537.021 126.917 536.688 125.625C536.354 124.292 535.729 123.625 534.812 123.625C534.229 123.625 533.729 123.833 533.312 124.25C533.688 128.375 533.875 131.688 533.875 134.188ZM510.5 161.875C503.667 155.292 500.25 146.375 500.25 135.125C500.25 123.833 503.458 114.938 509.875 108.438C516.333 101.896 524.792 98.625 535.25 98.625C545.708 98.625 554.167 102.021 560.625 108.812C567.042 115.604 570.25 124.458 570.25 135.375C570.25 146.25 567.146 154.896 560.938 161.312C554.771 167.729 546.375 170.938 535.75 170.938C525.125 170.938 516.708 167.917 510.5 161.875ZM619.36 137.438V138.875C619.36 139.542 619.381 140.021 619.423 140.312C619.839 140.521 620.298 140.625 620.798 140.625C622.006 140.625 622.61 139.708 622.61 137.875C622.61 131.75 622.943 125.396 623.61 118.812C624.318 112.188 625.068 107.083 625.86 103.5C629.235 101.042 633.735 99.8125 639.36 99.8125C644.985 99.8125 649.318 100.917 652.36 103.125C655.443 105.292 656.985 107.917 656.985 111C656.985 112.292 656.214 117.625 654.673 127C652.964 136.542 650.777 146.583 648.11 157.125C647.568 159.25 646.589 162.229 645.173 166.062C643.798 169.896 642.318 173.083 640.735 175.625C635.777 183.5 629.652 188.375 622.36 190.25C618.943 191.125 615.506 191.562 612.048 191.562C605.339 191.562 600.152 189.896 596.485 186.562C593.11 183.562 591.423 179.833 591.423 175.375C591.423 170.958 592.735 166.792 595.36 162.875C595.985 162.708 597.131 162.625 598.798 162.625C600.464 162.625 602.548 162.833 605.048 163.25C611.964 164.542 615.485 165.188 615.61 165.188C615.902 165.229 616.214 165.292 616.548 165.375C616.923 165.417 617.402 165.438 617.985 165.438C618.568 165.438 619.068 165.271 619.485 164.938C619.902 164.604 620.11 163.938 620.11 162.938L605.36 160.125C601.735 158.625 598.589 155.479 595.923 150.688C592.631 144.771 590.402 136.75 589.235 126.625C586.485 123.042 585.11 118.75 585.11 113.75C585.11 108.75 586.36 104.396 588.86 100.688H604.923C610.298 100.688 614.318 102.229 616.985 105.312C618.943 107.604 620.193 110.958 620.735 115.375C619.818 122.625 619.36 129.979 619.36 137.438Z" fill="#3468C0"/>
<rect x="40" y="4" width="59.375" height="30" rx="3" fill="black"/>
<rect x="40.5" y="4.5" width="58.375" height="29" rx="2.5" stroke="black" stroke-opacity="0.14902"/>
<path d="M51.3438 16C51.2969 15.6042 51.1068 15.2969 50.7734 15.0781C50.4401 14.8594 50.0313 14.75 49.5469 14.75C49.1927 14.75 48.8828 14.8073 48.6172 14.9219C48.3542 15.0365 48.1484 15.194 48 15.3945C47.8542 15.5951 47.7813 15.8229 47.7813 16.0781C47.7813 16.2917 47.832 16.4753 47.9336 16.6289C48.0378 16.7799 48.1706 16.9062 48.332 17.0078C48.4935 17.1068 48.6628 17.1888 48.8398 17.2539C49.0169 17.3164 49.1797 17.3672 49.3281 17.4062L50.1406 17.625C50.349 17.6797 50.5807 17.7552 50.8359 17.8516C51.0938 17.9479 51.3398 18.0794 51.5742 18.2461C51.8112 18.4102 52.0065 18.6211 52.1602 18.8789C52.3138 19.1367 52.3906 19.4531 52.3906 19.8281C52.3906 20.2604 52.2773 20.651 52.0508 21C51.8268 21.349 51.4987 21.6263 51.0664 21.832C50.6367 22.0378 50.1146 22.1406 49.5 22.1406C48.9271 22.1406 48.431 22.0482 48.0117 21.8633C47.5951 21.6784 47.2669 21.4206 47.0273 21.0898C46.7904 20.7591 46.6563 20.375 46.625 19.9375H47.625C47.651 20.2396 47.7526 20.4896 47.9297 20.6875C48.1094 20.8828 48.3359 21.0286 48.6094 21.125C48.8854 21.2187 49.1823 21.2656 49.5 21.2656C49.8698 21.2656 50.2018 21.2057 50.4961 21.0859C50.7904 20.9635 51.0234 20.7943 51.1953 20.5781C51.3672 20.3594 51.4531 20.1042 51.4531 19.8125C51.4531 19.5469 51.3789 19.3307 51.2305 19.1641C51.082 18.9974 50.8867 18.862 50.6445 18.7578C50.4023 18.6536 50.1406 18.5625 49.8594 18.4844L48.875 18.2031C48.25 18.0234 47.7552 17.7669 47.3906 17.4336C47.026 17.1003 46.8438 16.6641 46.8438 16.125C46.8438 15.6771 46.9648 15.2865 47.207 14.9531C47.4518 14.6172 47.7799 14.3568 48.1914 14.1719C48.6055 13.9844 49.0677 13.8906 49.5781 13.8906C50.0938 13.8906 50.5521 13.9831 50.9531 14.168C51.3542 14.3503 51.6719 14.6003 51.9062 14.918C52.1432 15.2357 52.2682 15.5964 52.2813 16H51.3438ZM56.374 22.125C55.7959 22.125 55.2972 21.9974 54.8779 21.7422C54.4613 21.4844 54.1396 21.125 53.9131 20.6641C53.6891 20.2005 53.5771 19.6615 53.5771 19.0469C53.5771 18.4323 53.6891 17.8906 53.9131 17.4219C54.1396 16.9505 54.4548 16.5833 54.8584 16.3203C55.2646 16.0547 55.7386 15.9219 56.2803 15.9219C56.5928 15.9219 56.9014 15.974 57.2061 16.0781C57.5107 16.1823 57.7881 16.3516 58.0381 16.5859C58.2881 16.8177 58.4873 17.125 58.6357 17.5078C58.7842 17.8906 58.8584 18.362 58.8584 18.9219V19.3125H54.2334V18.5156H57.9209C57.9209 18.1771 57.8532 17.875 57.7178 17.6094C57.585 17.3437 57.3949 17.1341 57.1475 16.9805C56.9027 16.8268 56.6136 16.75 56.2803 16.75C55.9131 16.75 55.5954 16.8411 55.3271 17.0234C55.0615 17.2031 54.8571 17.4375 54.7139 17.7266C54.5706 18.0156 54.499 18.3255 54.499 18.6562V19.1875C54.499 19.6406 54.5771 20.0247 54.7334 20.3398C54.8923 20.6523 55.1123 20.8906 55.3936 21.0547C55.6748 21.2161 56.0016 21.2969 56.374 21.2969C56.6162 21.2969 56.835 21.263 57.0303 21.1953C57.2282 21.125 57.3988 21.0208 57.542 20.8828C57.6852 20.7422 57.7959 20.5677 57.874 20.3594L58.7646 20.6094C58.6709 20.9115 58.5133 21.1771 58.292 21.4062C58.0706 21.6328 57.7972 21.8099 57.4717 21.9375C57.1462 22.0625 56.7803 22.125 56.374 22.125ZM62.6982 22.125C62.1357 22.125 61.6514 21.9922 61.2451 21.7266C60.8389 21.4609 60.5264 21.0951 60.3076 20.6289C60.0889 20.1628 59.9795 19.6302 59.9795 19.0312C59.9795 18.4219 60.0915 17.8841 60.3154 17.418C60.542 16.9492 60.8571 16.5833 61.2607 16.3203C61.667 16.0547 62.141 15.9219 62.6826 15.9219C63.1045 15.9219 63.4847 16 63.8232 16.1562C64.1618 16.3125 64.4391 16.5312 64.6553 16.8125C64.8714 17.0937 65.0055 17.4219 65.0576 17.7969H64.1357C64.0654 17.5234 63.9092 17.2812 63.667 17.0703C63.4274 16.8568 63.1045 16.75 62.6982 16.75C62.3389 16.75 62.0238 16.8437 61.7529 17.0312C61.4847 17.2161 61.2751 17.4779 61.124 17.8164C60.9756 18.1523 60.9014 18.5469 60.9014 19C60.9014 19.4635 60.9743 19.8672 61.1201 20.2109C61.2686 20.5547 61.4769 20.8216 61.7451 21.0117C62.016 21.2018 62.3337 21.2969 62.6982 21.2969C62.9378 21.2969 63.1553 21.2552 63.3506 21.1719C63.5459 21.0885 63.7113 20.9688 63.8467 20.8125C63.9821 20.6562 64.0785 20.4687 64.1357 20.25H65.0576C65.0055 20.6042 64.8766 20.9232 64.6709 21.207C64.4678 21.4883 64.1982 21.7122 63.8623 21.8789C63.529 22.043 63.141 22.125 62.6982 22.125ZM69.0146 16V16.7812H65.9053V16H69.0146ZM66.8115 14.5625H67.7334V20.2812C67.7334 20.5417 67.7712 20.737 67.8467 20.8672C67.9248 20.9948 68.0238 21.0807 68.1436 21.125C68.266 21.1667 68.3949 21.1875 68.5303 21.1875C68.6318 21.1875 68.7152 21.1823 68.7803 21.1719C68.8454 21.1589 68.8975 21.1484 68.9365 21.1406L69.124 21.9687C69.0615 21.9922 68.9743 22.0156 68.8623 22.0391C68.7503 22.0651 68.6084 22.0781 68.4365 22.0781C68.1761 22.0781 67.9209 22.0221 67.6709 21.9102C67.4235 21.7982 67.2178 21.6276 67.0537 21.3984C66.8923 21.1693 66.8115 20.8802 66.8115 20.5312V14.5625ZM70.4014 22V16H71.3232V22H70.4014ZM70.8701 15C70.6904 15 70.5355 14.9388 70.4053 14.8164C70.2777 14.694 70.2139 14.5469 70.2139 14.375C70.2139 14.2031 70.2777 14.056 70.4053 13.9336C70.5355 13.8112 70.6904 13.75 70.8701 13.75C71.0498 13.75 71.2035 13.8112 71.3311 13.9336C71.4613 14.056 71.5264 14.2031 71.5264 14.375C71.5264 14.5469 71.4613 14.694 71.3311 14.8164C71.2035 14.9388 71.0498 15 70.8701 15ZM75.4492 22.125C74.9076 22.125 74.4323 21.9961 74.0234 21.7383C73.6172 21.4805 73.2995 21.1198 73.0703 20.6562C72.8438 20.1927 72.7305 19.651 72.7305 19.0312C72.7305 18.4062 72.8438 17.8607 73.0703 17.3945C73.2995 16.9284 73.6172 16.5664 74.0234 16.3086C74.4323 16.0508 74.9076 15.9219 75.4492 15.9219C75.9909 15.9219 76.4648 16.0508 76.8711 16.3086C77.2799 16.5664 77.5977 16.9284 77.8242 17.3945C78.0534 17.8607 78.168 18.4062 78.168 19.0312C78.168 19.651 78.0534 20.1927 77.8242 20.6562C77.5977 21.1198 77.2799 21.4805 76.8711 21.7383C76.4648 21.9961 75.9909 22.125 75.4492 22.125ZM75.4492 21.2969C75.8607 21.2969 76.1992 21.1914 76.4648 20.9805C76.7305 20.7695 76.9271 20.4922 77.0547 20.1484C77.1823 19.8047 77.2461 19.4323 77.2461 19.0312C77.2461 18.6302 77.1823 18.2565 77.0547 17.9102C76.9271 17.5638 76.7305 17.2839 76.4648 17.0703C76.1992 16.8568 75.8607 16.75 75.4492 16.75C75.0378 16.75 74.6992 16.8568 74.4336 17.0703C74.168 17.2839 73.9714 17.5638 73.8438 17.9102C73.7161 18.2565 73.6523 18.6302 73.6523 19.0312C73.6523 19.4323 73.7161 19.8047 73.8438 20.1484C73.9714 20.4922 74.168 20.7695 74.4336 20.9805C74.6992 21.1914 75.0378 21.2969 75.4492 21.2969ZM80.4971 18.3906V22H79.5752V16H80.4658V16.9375H80.5439C80.6846 16.6328 80.8981 16.388 81.1846 16.2031C81.471 16.0156 81.8408 15.9219 82.2939 15.9219C82.7002 15.9219 83.0557 16.0052 83.3604 16.1719C83.665 16.3359 83.902 16.5859 84.0713 16.9219C84.2406 17.2552 84.3252 17.6771 84.3252 18.1875V22H83.4033V18.25C83.4033 17.7786 83.2809 17.4115 83.0361 17.1484C82.7913 16.8828 82.4554 16.75 82.0283 16.75C81.734 16.75 81.471 16.8138 81.2393 16.9414C81.0101 17.069 80.8291 17.2552 80.6963 17.5C80.5635 17.7448 80.4971 18.0417 80.4971 18.3906ZM91.9004 14V22H90.9316V15.0156H90.8848L88.9316 16.3125V15.3281L90.9316 14H91.9004Z" fill="white"/>
</svg>
