<svg width="100" height="100" viewBox="0 0 100 100" fill="none" xmlns="http://www.w3.org/2000/svg">
<circle cx="50" cy="50" r="50" fill="#263238"/>
<path d="M61.3636 42.909L63.1202 44.5312L63.6363 42.1875L61.3636 42.909Z" fill="#FF9843"/>
<path d="M60.606 45.2528L62.3627 46.875L62.8787 44.5312L60.606 45.2528Z" fill="#FF9843"/>
<path d="M62.1592 49.7717C61.5384 40.1991 68.5979 31.9242 77.9079 31.2907C87.7481 30.6209 96.2733 38.279 96.9295 48.3967C97.5855 58.5144 90.1241 67.2604 80.2838 67.9301C70.9739 68.5638 62.9078 61.3183 62.287 51.7457L62.1592 49.7717Z" fill="#FFC956"/>
<path d="M69.7575 42.4389C70.4002 42.3951 70.8865 41.8242 70.8438 41.1639C70.8012 40.5036 70.2455 40.0038 69.6029 40.0477C68.9602 40.0915 68.4738 40.6624 68.5165 41.3227C68.5592 41.9831 69.1148 42.4828 69.7575 42.4389Z" fill="#3468C0"/>
<path d="M78.7925 44.843C78.717 43.6437 79.5736 42.6072 80.7059 42.5278L85.4171 42.1975C87.7767 42.0321 89.8171 43.924 89.9745 46.4233L90.1322 48.9276C90.4472 53.9316 86.8726 58.2567 82.1482 58.5879C80.7788 58.6838 79.5946 57.5859 79.5034 56.1354L78.7925 44.843Z" fill="white"/>
<path d="M46.6004 33.5996C52.369 34.1872 57.4106 30.8779 57.8611 26.2081C58.3117 21.5384 54.0006 17.2764 48.232 16.6889C42.4635 16.1013 37.4219 19.4106 36.9713 24.0804C36.5208 28.7502 40.8319 33.0121 46.6004 33.5996Z" fill="#FFC956"/>
<path d="M60.606 33.9088L58.2853 35.5469L57.5757 33.2031L60.606 33.9088Z" fill="#FF9843"/>
<path d="M59.8485 36.2527L58.1079 37.8906L57.5757 35.5469L59.8485 36.2527Z" fill="#FF9843"/>
<path d="M36.7905 24.6719L36.2644 43.8927C39.86 45.3115 42.1614 47.9477 42.8629 49.0885C43.2162 49.6091 43.9132 50.8293 43.8727 51.5453C43.8221 52.4403 42.6774 52.3698 42.425 51.7554C42.1725 51.1413 40.0854 47.4207 36.1463 45.9808C23.8076 40.7308 17.5447 55.0127 21.7695 61.559C25.1494 66.796 31.8749 69.0661 34.8152 69.5466C38.7879 70.3898 47.9789 70.3572 52.9622 63.48C59.1911 54.8834 59.075 26.439 57.2234 23.6309C55.3719 20.8229 49.3959 19.8561 45.659 19.9253C43.2479 19.9699 39.4045 21.5619 38.0073 22.1763C37.6653 22.3268 37.4004 22.6165 37.2619 22.9771L36.9832 23.703C36.8647 24.0116 36.7996 24.3395 36.7905 24.6719Z" fill="#FFC956"/>
<path d="M54.8737 31.281C55.5167 31.32 56.0686 30.8161 56.1066 30.1554C56.1445 29.4948 55.654 28.9276 55.011 28.8887C54.368 28.8497 53.8161 29.3537 53.7781 30.0143C53.7402 30.6749 54.2307 31.2421 54.8737 31.281Z" fill="#3468C0"/>
</svg>
