<svg width="57" height="58" viewBox="0 0 57 58" fill="none" xmlns="http://www.w3.org/2000/svg">
<path d="M54.3503 28.5509C54.3503 43.2396 42.6064 55.1018 28.1752 55.1018C13.7439 55.1018 2 43.2396 2 28.5509C2 13.8622 13.7439 2 28.1752 2C42.6064 2 54.3503 13.8622 54.3503 28.5509Z" fill="#D9D9D9" stroke="white" stroke-width="4"/>
<mask id="mask0_5_60" style="mask-type:luminance" maskUnits="userSpaceOnUse" x="13" y="7" width="34" height="40">
<path d="M46.8498 7.28961H13.1884V46.4091H46.8498V7.28961Z" fill="white"/>
</mask>
<g mask="url(#mask0_5_60)">
<path d="M28.2633 10.0577C29.2808 11.1177 30.002 12.4324 30.3534 13.8671C30.8198 15.8043 30.7366 17.8469 30.3755 19.8044C29.8771 20.4626 29.2814 21.0389 28.609 21.5128C27.7666 22.1259 26.8329 22.5988 25.843 22.9135C25.0502 23.1663 24.242 23.3669 23.4236 23.514C22.6038 23.6534 21.776 23.7388 20.9455 23.7698C19.8484 23.8113 18.7523 23.6654 17.7033 23.3382C16.9751 23.1219 16.2819 22.7992 15.6458 22.3803C14.6575 20.6588 13.9009 18.7628 13.6986 16.7791C13.5236 14.8904 13.9793 12.9968 14.9927 11.4012C15.9919 9.79815 17.9082 8.45793 20.8139 7.94993C23.5344 7.47439 25.8957 8.06652 27.3669 9.23748C27.684 9.48961 27.9835 9.76368 28.2633 10.0577Z" fill="white"/>
<path d="M45.9967 40.6063C44.0776 38.6354 41.9857 36.8449 39.7469 35.2568C39.5372 32.3228 38.9114 29.3969 37.6492 26.7473C37.2663 25.9417 36.8226 25.1675 36.3219 24.4311C35.1581 22.6883 33.6387 21.2182 31.8661 20.12C31.393 19.9157 30.9069 19.7436 30.411 19.6049C30.3995 19.6714 30.3885 19.738 30.3763 19.8044C29.878 20.4626 29.2821 21.0389 28.6098 21.5128C27.7676 22.1259 26.8338 22.5987 25.8438 22.9132C25.051 23.1663 24.2429 23.3669 23.4244 23.5139C22.6047 23.6534 21.7769 23.7388 20.9462 23.7698C19.849 23.8114 18.7526 23.6655 17.7033 23.3382C17.0259 23.1341 16.3786 22.8395 15.7783 22.4621C15.3431 22.7691 14.9465 23.1287 14.5973 23.5329C14.3639 24.1634 14.2051 24.8196 14.1242 25.4879C13.9051 26.7241 13.8109 27.9798 13.843 29.2354C13.9676 31.6929 14.8855 34.0412 16.4559 35.9196C18.0181 37.7777 20.6352 39.2698 22.9932 39.7755C24.5463 40.2277 26.4152 40.302 26.9852 40.334C30.2873 40.519 33.2381 39.9885 35.3761 39.1148C37.0691 40.4595 41.5251 41.9573 43.8511 42.4197C44.4121 42.5312 44.9948 42.625 45.5514 42.4925C45.7448 42.461 45.9245 42.3715 46.0671 42.2355C46.2099 42.0997 46.309 41.9235 46.3518 41.7299C46.3775 41.5278 46.3589 41.3224 46.2976 41.1282C46.2361 40.9341 46.1335 40.756 45.9967 40.6063Z" fill="#D8D2C6"/>
<path d="M22.2768 16.7937C21.8493 16.8521 21.4454 17.027 21.1085 17.2997C20.7716 17.5724 20.5142 17.9327 20.3639 18.3421C20.308 18.4791 20.2903 18.6291 20.3129 18.7756C20.3355 18.9222 20.3974 19.0596 20.4919 19.1729C20.616 19.2852 20.7706 19.357 20.9356 19.3788C21.5244 19.3868 22.1123 19.3345 22.6905 19.2228C23.2729 19.1335 23.8444 18.983 24.3959 18.7737C24.5444 18.6971 24.6663 18.5769 24.7459 18.4288C24.7974 18.2899 24.8102 18.1393 24.783 17.9934C24.7557 17.8477 24.6894 17.7123 24.5912 17.6021C24.312 17.2702 23.9501 17.0201 23.5431 16.8779C23.136 16.7358 22.6987 16.7067 22.2768 16.7937Z" fill="#D9D9D9"/>
<path d="M15.9192 21.8746C14.7493 19.7571 13.8307 17.2295 14.2323 14.7691C14.5617 12.751 15.5765 10.8914 17.2882 9.78066C19.1494 8.5717 21.5497 8.08922 23.735 8.33505C24.7202 8.43587 25.6728 8.74767 26.5299 9.2498C27.3987 9.79724 28.1441 10.5238 28.7171 11.3822C30.3088 13.7111 30.4139 16.6717 29.959 19.382C29.9286 19.5071 29.9466 19.6394 30.0096 19.7515C30.0724 19.8635 30.1753 19.947 30.297 19.9847C30.4208 20.0182 30.5526 20.0011 30.664 19.9371C30.7754 19.873 30.8575 19.7672 30.8924 19.6425C31.3417 16.9606 31.3225 14.0406 29.9903 11.6019C29.4038 10.5355 28.6108 9.59997 27.6586 8.85122C26.8034 8.19463 25.814 7.7398 24.7629 7.51997C22.2856 7.01258 19.7114 7.37438 17.4645 8.54577C16.5836 8.99636 15.7974 9.6156 15.1495 10.3691C14.3888 11.302 13.8308 12.3868 13.5121 13.5526C12.6538 16.5755 13.6128 19.7111 15.0831 22.3692C15.3875 22.9204 16.2239 22.4261 15.9192 21.8746Z" fill="#8E8E8E"/>
<path d="M28.8502 17.6664C28.6013 17.6028 28.3481 17.5578 28.0929 17.5314C27.9975 17.53 27.9041 17.5581 27.8251 17.6119C27.746 17.6657 27.685 17.7427 27.6504 17.8325C27.6201 17.8906 27.6057 17.9559 27.6087 18.0215C27.609 18.1515 27.6597 18.2761 27.7499 18.3685L27.8479 18.4451C27.922 18.4891 28.0064 18.5122 28.0922 18.5121C28.1271 18.5158 28.1619 18.5201 28.1969 18.5248L28.0681 18.5072C28.2449 18.5318 28.4199 18.5669 28.5926 18.6122C28.7187 18.6449 28.8524 18.6272 28.9658 18.5627C29.0709 18.494 29.1493 18.3905 29.1877 18.2698C29.2045 18.2067 29.2087 18.1408 29.2004 18.0761C29.192 18.0113 29.1711 17.9488 29.1388 17.8922C29.0739 17.783 28.9704 17.7028 28.8494 17.6676L28.8502 17.6664Z" fill="#D9D9D9"/>
<path d="M18.0252 20.8741C18.1109 20.7662 18.2088 20.6687 18.3169 20.5837L18.2188 20.6605C18.2327 20.6495 18.2468 20.6389 18.261 20.6284C18.3445 20.5811 18.4116 20.5088 18.4532 20.4214C18.4947 20.3341 18.5086 20.2359 18.4932 20.1402C18.4902 20.0754 18.4704 20.0125 18.4356 19.9579L18.3601 19.8589C18.3008 19.7989 18.2272 19.7555 18.1465 19.733L18.0177 19.7153C17.9318 19.7152 17.8474 19.7382 17.7732 19.7821C17.6126 19.8952 17.4673 20.0292 17.3416 20.181C17.2724 20.2489 17.2256 20.3368 17.2075 20.4326C17.1895 20.5285 17.2011 20.6276 17.2408 20.7164C17.2602 20.777 17.295 20.8313 17.3416 20.8741L17.4397 20.9508C17.5137 20.9948 17.5981 21.0178 17.6839 21.0176L17.8127 21.0003C17.8934 20.9776 17.9671 20.9342 18.0262 20.8741H18.0252Z" fill="#D9D9D9"/>
<path d="M17.5745 23.8106C18.3432 24.0442 19.1354 24.1907 19.936 24.2473C20.709 24.2856 21.4838 24.2583 22.2522 24.1656C23.6999 24.0329 25.1244 23.7107 26.4903 23.2074C27.3283 22.8872 28.1225 22.4598 28.8534 21.9356C28.9617 21.8676 29.04 21.7603 29.0723 21.6355C29.1047 21.5107 29.0884 21.3782 29.0271 21.2653C28.9615 21.1538 28.8554 21.0729 28.7314 21.04C28.6075 21.0071 28.4758 21.0249 28.3647 21.0895C27.6033 21.6474 26.7633 22.086 25.8728 22.3903C25.0299 22.6689 24.1683 22.8865 23.2948 23.0412C21.4731 23.3597 19.6158 23.4073 17.8319 22.8653C17.2338 22.6835 16.9782 23.6294 17.5745 23.8106Z" fill="#8E8E8E"/>
<path d="M22.1482 16.3213C21.7246 16.3923 21.3216 16.5564 20.9675 16.8021C20.6134 17.0479 20.3169 17.3692 20.0989 17.7436C19.8705 18.1628 19.7295 18.6593 19.903 19.1259C20.0014 19.3575 20.1672 19.5532 20.3783 19.687C20.5894 19.8209 20.8358 19.8865 21.0846 19.875C21.5724 19.8705 22.0592 19.8256 22.5399 19.7411C23.0479 19.6678 23.5504 19.5599 24.0439 19.4179C24.4992 19.2833 24.9454 19.1073 25.1762 18.6536C25.4139 18.1856 25.2438 17.6417 24.9341 17.257C24.2598 16.4184 23.1664 16.1563 22.1477 16.322C22.0245 16.3575 21.9199 16.4405 21.8567 16.5533C21.7933 16.6661 21.7765 16.7996 21.8097 16.9248C21.8465 17.0485 21.9292 17.1531 22.0403 17.2168C22.1514 17.2804 22.2824 17.2981 22.4062 17.2664C22.6749 17.2195 22.9502 17.2281 23.2155 17.2919C23.4808 17.3557 23.7304 17.4733 23.9496 17.6377C24.0622 17.7263 24.1616 17.8308 24.2451 17.948C24.2966 18.0254 24.3228 18.1174 24.3197 18.2108C24.3411 18.1446 24.3038 18.2288 24.2806 18.2563C24.2453 18.2891 24.2073 18.3188 24.1671 18.345C24.0982 18.3776 23.9066 18.4368 23.7872 18.4721C23.0496 18.6895 22.2912 18.8264 21.5249 18.8804C21.2976 18.8964 20.9704 18.9679 20.8165 18.8084C20.7777 18.7675 20.8088 18.7952 20.8147 18.8061C20.8276 18.8292 20.8006 18.7543 20.8006 18.7559C20.7939 18.7086 20.7917 18.6607 20.7943 18.613C20.8177 18.4917 20.8605 18.3752 20.9207 18.2679C21.0757 17.9968 21.2903 17.7654 21.5479 17.5919C21.8056 17.4183 22.0992 17.3073 22.4062 17.2675C22.5293 17.2319 22.6338 17.1488 22.697 17.036C22.7602 16.9231 22.7772 16.7898 22.7442 16.6645C22.708 16.5404 22.6256 16.4353 22.5145 16.3713C22.4034 16.3074 22.272 16.2894 22.1482 16.3213Z" fill="#8E8E8E"/>
<path d="M25.7163 15.8683C25.6694 15.7177 25.6552 15.5586 25.6751 15.4019C25.695 15.2452 25.7482 15.0948 25.8313 14.9611C25.9533 14.7864 26.1371 14.666 26.3445 14.6251C26.4828 14.5949 26.6264 14.5989 26.7629 14.6367C26.8995 14.6746 27.025 14.7452 27.1288 14.8427C27.2872 15.006 27.3909 15.2157 27.4254 15.4421C27.4598 15.6683 27.4232 15.9 27.3207 16.104C27.2212 16.2945 27.0541 16.4395 26.8529 16.5099C26.6518 16.5803 26.4317 16.5707 26.2374 16.4829C26.1105 16.4268 25.9977 16.3423 25.9076 16.2359C25.8173 16.1295 25.752 16.0038 25.7163 15.8683Z" fill="black"/>
<path d="M17.0084 17.3909C16.9613 17.2404 16.9472 17.0812 16.9669 16.9244C16.9867 16.7677 17.04 16.6173 17.1231 16.4836C17.2452 16.309 17.4289 16.1888 17.6363 16.1477C17.7747 16.1175 17.9183 16.1214 18.0548 16.1593C18.1914 16.1972 18.3169 16.2678 18.4208 16.3652C18.5791 16.5287 18.6828 16.7384 18.7172 16.9648C18.7516 17.1911 18.715 17.4226 18.6125 17.6268C18.513 17.8172 18.3457 17.9622 18.1446 18.0325C17.9436 18.1029 17.7235 18.0933 17.5292 18.0057C17.4023 17.9495 17.2895 17.865 17.1994 17.7586C17.1092 17.6521 17.0439 17.5265 17.0084 17.3909Z" fill="black"/>
<path d="M31.6209 20.5431C35.6412 22.9949 37.9342 27.4168 38.83 31.9639C38.966 32.6549 39.0736 33.351 39.1527 34.0522C39.1931 34.4083 39.2266 34.7653 39.2536 35.1229C39.2594 35.2005 39.2643 35.2783 39.2703 35.3558C39.2733 35.3841 39.2743 35.4125 39.2731 35.4408C39.2783 35.391 39.274 35.4011 39.2604 35.4714C39.2237 35.6026 39.1694 35.7279 39.099 35.8441C38.7828 36.389 39.6195 36.8827 39.9351 36.3386C40.0963 36.0808 40.1989 35.7902 40.2359 35.4876C40.2412 35.1785 40.2204 34.8694 40.174 34.5639C40.1083 33.8684 40.0188 33.1756 39.9055 32.4853C39.6914 31.1632 39.3646 29.8625 38.9286 28.5975C38.131 26.2361 36.8587 24.0676 35.1918 22.2288C34.2844 21.2453 33.2472 20.3934 32.1098 19.6969C31.5746 19.3702 31.0871 20.2176 31.6209 20.5431Z" fill="#8E8E8E"/>
<path d="M14.1304 23.4027C13.8717 24.1293 13.6981 24.884 13.6128 25.6515C13.4874 26.4454 13.4028 27.2453 13.3595 28.0481C13.2126 30.8963 14.0972 33.7009 15.8473 35.936C16.6642 36.959 17.6486 37.8327 18.7576 38.5187C20.0176 39.3304 21.407 39.9153 22.8643 40.2475C23.4717 40.3801 23.7316 39.4356 23.1215 39.3023C20.7253 38.7838 18.549 37.5202 16.897 35.6882C15.2032 33.7052 14.285 31.1634 14.3152 28.542C14.3305 27.694 14.4034 26.8481 14.5331 26.0102C14.6182 25.2095 14.7963 24.4216 15.0641 23.6632C15.0973 23.5378 15.0805 23.4044 15.0171 23.2915C14.9538 23.1787 14.8492 23.0957 14.7258 23.0604C14.6021 23.029 14.4713 23.0471 14.3604 23.1108C14.2495 23.1745 14.1671 23.279 14.1304 23.4027Z" fill="#8E8E8E"/>
<path d="M22.8643 40.2483C24.2644 40.6482 25.7313 40.765 27.1793 40.834C29.0135 40.9268 30.8522 40.7918 32.654 40.432C33.5199 40.2591 34.3709 40.0169 35.1989 39.7078C35.3208 39.6702 35.4238 39.5867 35.4866 39.4745C35.5496 39.3624 35.5676 39.23 35.5369 39.1049C35.5019 38.9801 35.4199 38.8743 35.3084 38.8103C35.1971 38.7462 35.0653 38.7291 34.9415 38.7626C32.0289 39.8613 28.8676 40.0353 25.795 39.7649C24.8915 39.6964 23.9964 39.5418 23.1216 39.3031C22.521 39.1314 22.2646 40.0767 22.8643 40.2483Z" fill="#8E8E8E"/>
<path d="M23.141 40.4468C22.6678 41.5346 22.3727 42.6931 22.267 43.8769C22.2674 44.0068 22.3186 44.1312 22.4093 44.2229C22.5 44.3147 22.6229 44.3665 22.7511 44.3669C22.8784 44.3636 22.9996 44.311 23.0898 44.2198C23.1798 44.1285 23.2318 44.0058 23.2351 43.8769C23.331 42.8651 23.5812 41.8746 23.9769 40.9404C24.0377 40.8273 24.0536 40.695 24.0214 40.5704C23.989 40.4458 23.911 40.3385 23.8032 40.2701C23.6922 40.2054 23.5603 40.1876 23.4364 40.2205C23.3125 40.2533 23.2063 40.3343 23.141 40.4459V40.4468Z" fill="#8E8E8E"/>
<path d="M22.3054 43.5926C21.4653 43.9762 20.7016 44.5121 20.0518 45.1736C20.0062 45.219 19.97 45.2731 19.9451 45.3326C19.9203 45.3923 19.9075 45.4563 19.9072 45.5209C19.9069 45.5856 19.9194 45.6498 19.9436 45.7095C19.968 45.7694 20.0037 45.8238 20.0489 45.8694C20.0941 45.9152 20.1478 45.9514 20.2069 45.9761C20.266 46.0006 20.3293 46.0133 20.3932 46.0129C20.4571 46.0127 20.5203 45.9997 20.5793 45.9745C20.6381 45.9494 20.6916 45.9127 20.7363 45.8666C20.8892 45.7117 21.0482 45.5631 21.214 45.4223C21.2567 45.3862 21.2997 45.3505 21.3433 45.3153C21.3614 45.2983 21.3808 45.2828 21.4014 45.2688C21.3703 45.2866 21.3466 45.311 21.3916 45.2767C21.4808 45.2092 21.5706 45.143 21.6626 45.0793C22.0199 44.8317 22.3986 44.6175 22.7941 44.439C22.9046 44.3731 22.9849 44.2655 23.0175 44.14C23.05 44.0144 23.0321 43.8808 22.9678 43.7684C22.9004 43.6591 22.7943 43.58 22.6711 43.5473C22.548 43.5145 22.4171 43.5309 22.3054 43.5926Z" fill="#8E8E8E"/>
<path d="M22.2601 43.9367C22.1051 44.2202 21.997 44.5275 21.94 44.8464C21.8879 45.17 21.8544 45.4963 21.8113 45.8212L21.8286 45.6908C21.8241 45.7241 21.8196 45.7572 21.8151 45.7905C21.7854 45.9181 21.8026 46.0523 21.8637 46.168C21.8958 46.2236 21.9384 46.2722 21.989 46.3111C22.0396 46.3501 22.0974 46.3785 22.159 46.3948C22.2204 46.4112 22.2846 46.4151 22.3475 46.4063C22.4105 46.3976 22.4712 46.3763 22.5261 46.3438C22.5807 46.3126 22.6285 46.2707 22.6666 46.2203C22.7048 46.17 22.7324 46.1124 22.748 46.051C22.7863 45.7765 22.8174 45.5012 22.8536 45.2265L22.8363 45.3568C22.8552 45.1806 22.8868 45.006 22.9313 44.8345C22.9551 44.7529 22.985 44.6724 23.0152 44.5926C23.0373 44.5352 22.9709 44.6924 23.0074 44.613C23.0157 44.595 23.0235 44.5771 23.032 44.5591C23.0522 44.516 23.0735 44.4737 23.0955 44.4315C23.1604 44.3192 23.1784 44.1855 23.1458 44.0598C23.1133 43.9341 23.0327 43.8267 22.9218 43.7611C22.8109 43.6955 22.6789 43.6771 22.5546 43.7101C22.4304 43.7432 22.3242 43.8247 22.2595 43.937L22.2601 43.9367Z" fill="#8E8E8E"/>
<path d="M22.7327 44.8065C22.8214 44.8662 22.908 44.9287 22.9925 44.9939L22.8947 44.9174C23.2773 45.2266 23.6193 45.5841 23.9125 45.981L23.8368 45.8817C23.8922 45.9545 23.9467 46.0277 24.0002 46.1017C24.0673 46.2089 24.1698 46.2886 24.2895 46.3262C24.4154 46.36 24.5495 46.3423 24.6626 46.2769C24.7711 46.2118 24.8506 46.1068 24.8846 45.9838C24.9024 45.9209 24.9072 45.8549 24.8988 45.7899C24.8905 45.725 24.8689 45.6625 24.8357 45.6064C24.6115 45.2893 24.3672 44.9874 24.1044 44.7024C23.8373 44.423 23.5411 44.174 23.2207 43.9596C23.1096 43.8949 22.9779 43.8771 22.854 43.91C22.73 43.9428 22.6239 44.0238 22.5584 44.1354C22.4966 44.2483 22.48 44.381 22.5124 44.5059C22.5448 44.6309 22.6235 44.7383 22.7321 44.806L22.7327 44.8065Z" fill="#8E8E8E"/>
<path d="M30.529 40.7221C30.2584 41.6407 30.0893 42.5869 30.0248 43.5433C30.0254 43.673 30.0766 43.7973 30.1672 43.889C30.2579 43.9809 30.3807 44.0326 30.5089 44.0333C30.6363 44.0304 30.7578 43.9778 30.848 43.8865C30.9381 43.7953 30.99 43.6723 30.993 43.5433C31.0085 43.3197 31.0305 43.0967 31.0566 42.874C31.0585 42.8489 31.0617 42.824 31.0662 42.7993C31.0749 42.7394 31.0835 42.6798 31.0928 42.6201C31.1098 42.5095 31.1284 42.399 31.1487 42.2888C31.2299 41.8478 31.3347 41.4115 31.4629 40.982C31.4958 40.8568 31.4787 40.7234 31.4155 40.6107C31.3523 40.4979 31.248 40.4148 31.1249 40.3791C31.0011 40.3473 30.87 40.3651 30.759 40.4289C30.6479 40.4928 30.5656 40.5976 30.5292 40.7215L30.529 40.7221Z" fill="#8E8E8E"/>
<path d="M30.209 43.2898C29.3208 43.7538 28.5523 44.4218 27.9652 45.2406C27.9007 45.3529 27.8829 45.4865 27.9155 45.6121C27.9479 45.7378 28.0283 45.8453 28.1388 45.9112C28.2505 45.973 28.3814 45.9893 28.5045 45.9567C28.6276 45.924 28.7338 45.8448 28.8011 45.7354C28.818 45.7123 28.8354 45.6894 28.8521 45.6661C28.8876 45.617 28.793 45.7415 28.849 45.6701C28.8842 45.6253 28.9193 45.581 28.9554 45.5371C29.0266 45.4502 29.1005 45.3656 29.1773 45.2832C29.3277 45.1198 29.4875 44.9654 29.6558 44.821C29.6979 44.7851 29.7402 44.7498 29.7833 44.7149C29.8003 44.7013 29.8189 44.6884 29.8352 44.6741C29.7394 44.7601 29.8213 44.6855 29.8425 44.6695C29.9268 44.6062 30.0128 44.545 30.1006 44.4857C30.2932 44.3578 30.4927 44.2409 30.6983 44.1358C30.8085 44.0696 30.8885 43.9622 30.921 43.8366C30.9535 43.7111 30.9359 43.5778 30.872 43.4653C30.805 43.3553 30.6989 43.2758 30.5755 43.243C30.4522 43.2103 30.3211 43.227 30.2096 43.2895L30.209 43.2898Z" fill="#8E8E8E"/>
<path d="M30.0378 44.052C29.8873 44.6576 29.7849 45.2742 29.7317 45.8963C29.7322 46.026 29.7834 46.1503 29.874 46.2421C29.9647 46.3339 30.0875 46.3857 30.2158 46.3862C30.3431 46.3831 30.4645 46.3304 30.5546 46.2393C30.6447 46.148 30.6967 46.0252 30.6999 45.8963C30.7141 45.7149 30.7324 45.5341 30.7561 45.3537L30.7389 45.484C30.7963 45.0897 30.8738 44.6987 30.9714 44.3126C31.0055 44.1873 30.9891 44.0534 30.9256 43.9404C30.8622 43.8274 30.7571 43.7445 30.6333 43.7099C30.5096 43.6753 30.3773 43.692 30.2656 43.7561C30.1539 43.8203 30.072 43.9268 30.0378 44.052Z" fill="#8E8E8E"/>
<path d="M30.7744 44.4478C30.8397 44.4682 30.9044 44.4925 30.9685 44.5174C31.0088 44.5327 31.0471 44.549 31.0864 44.5651C31.1576 44.5946 30.9892 44.5227 31.0427 44.5464L31.0949 44.5693C31.2612 44.6432 31.4251 44.7227 31.5863 44.808C31.739 44.8884 31.8888 44.9734 32.0357 45.0658C32.0986 45.1066 32.1605 45.1475 32.2208 45.1908L32.2575 45.2179C32.3207 45.2643 32.1567 45.1338 32.2136 45.1839C32.2363 45.2043 32.2601 45.223 32.2826 45.2451C32.3736 45.3357 32.4963 45.3863 32.624 45.3858C32.7517 45.3853 32.874 45.3337 32.9644 45.2423C33.0547 45.1509 33.1057 45.0271 33.1061 44.8978C33.1067 44.7685 33.0567 44.6442 32.9671 44.5521C32.6965 44.3168 32.3965 44.1186 32.0747 43.9626C31.7406 43.7801 31.3916 43.6268 31.0318 43.5039C30.908 43.4704 30.7762 43.4876 30.6649 43.5516C30.5535 43.6155 30.4714 43.7213 30.4364 43.8461C30.4051 43.9713 30.4227 44.1038 30.4857 44.2162C30.5488 44.3285 30.6521 44.4119 30.7744 44.4489V44.4478Z" fill="#8E8E8E"/>
<path d="M39.5567 35.7188C40.7609 36.5967 41.941 37.5063 43.0617 38.4918C43.5948 38.9615 44.115 39.4448 44.6261 39.9383C44.8983 40.2009 45.168 40.4664 45.4355 40.7345C45.6631 40.9125 45.8211 41.166 45.8817 41.4505C46.0409 42.642 43.3274 41.8119 42.7413 41.657C41.4888 41.3252 40.2553 40.9231 39.0469 40.4523C37.8748 39.9969 36.6511 39.4901 35.6464 38.7124C35.5354 38.6475 35.4035 38.6296 35.2796 38.6625C35.1555 38.6954 35.0494 38.7765 34.984 38.8881C34.9224 39.0011 34.906 39.1337 34.9384 39.2585C34.9707 39.3833 35.0492 39.4907 35.1576 39.5585C36.1519 40.3281 37.3618 40.8283 38.5171 41.2902C39.8219 41.8121 41.1568 42.253 42.5147 42.6103C43.1699 42.7946 43.8372 42.9317 44.5115 43.0204C45.3034 43.1102 46.321 42.9961 46.7053 42.1735C46.8766 41.8012 46.8962 41.3758 46.7598 40.9892C46.611 40.5999 46.3699 40.2535 46.058 39.9805C45.4955 39.4204 44.925 38.8684 44.3394 38.3328C42.9721 37.1005 41.5385 35.9457 40.045 34.874C39.9339 34.8095 39.8021 34.7916 39.6782 34.8245C39.5542 34.8574 39.4481 34.9384 39.3826 35.0498C39.3207 35.1626 39.3041 35.2954 39.3365 35.4202C39.3688 35.5451 39.4476 35.6526 39.5562 35.7202L39.5567 35.7188Z" fill="#8E8E8E"/>
</g>
</svg>
