<svg width="20" height="20" viewBox="0 0 20 20" fill="none" xmlns="http://www.w3.org/2000/svg">
<path fill-rule="evenodd" clip-rule="evenodd" d="M3 0C1.34315 0 0 1.34315 0 3V17C0 18.6569 1.34315 20 3 20H8.86364C8.75514 20 8.65108 19.9561 8.57436 19.878C8.49765 19.7999 8.45455 19.6939 8.45455 19.5835V14.002H6.40909C6.30059 14.002 6.19654 13.9581 6.11982 13.88C6.0431 13.8019 6 13.6959 6 13.5854V11.4195C6 11.309 6.0431 11.2031 6.11982 11.125C6.19654 11.0468 6.30059 11.003 6.40909 11.003H8.45455V8.75369C8.51164 7.70529 8.97396 6.7225 9.7405 6.02008C10.507 5.31765 11.5155 4.95269 12.5455 5.00493H14.5909C14.6994 5.00493 14.8035 5.04881 14.8802 5.12692C14.9569 5.20504 15 5.31099 15 5.42146V7.58741C15 7.69788 14.9569 7.80383 14.8802 7.88194C14.8035 7.96006 14.6994 8.00394 14.5909 8.00394H12.5455C12.3419 8.0029 12.1453 8.07914 11.994 8.21778C11.8427 8.35642 11.7476 8.54749 11.7273 8.75369V11.003H14.4682C14.5308 11.0033 14.5925 11.0183 14.6485 11.0467C14.7045 11.0752 14.7534 11.1163 14.7913 11.167C14.8292 11.2177 14.8552 11.2766 14.8673 11.3392C14.8794 11.4017 14.8772 11.4662 14.8609 11.5278L14.2718 13.6937C14.2482 13.7832 14.1959 13.8621 14.1233 13.9179C14.0507 13.9737 13.9619 14.0033 13.8709 14.002H11.7273V19.5835C11.7273 19.6939 11.6842 19.7999 11.6075 19.878C11.5307 19.9561 11.4267 20 11.3182 20H17C18.6569 20 20 18.6569 20 17V3C20 1.34315 18.6569 0 17 0H3Z" fill="#959BA1"/>
</svg>
